<?xml version="1.0" encoding="utf-8"?>
<!-- Generator: Adobe Illustrator 19.0.0, SVG Export Plug-In . SVG Version: 6.00 Build 0)  -->
<svg version="1.1" xmlns="http://www.w3.org/2000/svg" xmlns:xlink="http://www.w3.org/1999/xlink" x="0px" y="0px"
	 viewBox="0 0 83.1 25.4" style="enable-background:new 0 0 83.1 25.4;" xml:space="preserve">
<style type="text/css">
	.st0{fill:#71A0CC;}
</style>
<g id="Capa_1">
	<g>
		<path class="st0" d="M15.9,22.8l-3.7-5.4H12H8.1v5.4H3.6V3.5H12c1.7,0,3.2,0.3,4.5,0.9c1.3,0.6,2.2,1.4,2.9,2.4c0.7,1,1,2.3,1,3.7
			c0,1.4-0.3,2.7-1,3.7c-0.7,1-1.7,1.8-2.9,2.4l4.3,6.2H15.9z M14.8,8c-0.7-0.6-1.7-0.9-3.1-0.9H8.1v6.7h3.6c1.3,0,2.4-0.3,3.1-0.9
			c0.7-0.6,1-1.4,1-2.5C15.8,9.4,15.5,8.6,14.8,8z"/>
		<path class="st0" d="M33.3,9.4c1.2,1.1,1.8,2.7,1.8,4.9v8.5h-4V21c-0.8,1.4-2.3,2.1-4.5,2.1c-1.1,0-2.1-0.2-3-0.6
			c-0.8-0.4-1.5-0.9-1.9-1.6c-0.4-0.7-0.7-1.5-0.7-2.3c0-1.4,0.5-2.5,1.6-3.3c1-0.8,2.6-1.2,4.8-1.2h3.4c0-0.9-0.3-1.7-0.9-2.2
			c-0.6-0.5-1.4-0.8-2.6-0.8c-0.8,0-1.6,0.1-2.3,0.4c-0.8,0.2-1.4,0.6-1.9,1l-1.5-3c0.8-0.6,1.8-1,2.9-1.3c1.1-0.3,2.3-0.5,3.5-0.5
			C30.3,7.8,32.1,8.3,33.3,9.4z M29.7,19.6c0.6-0.3,1-0.8,1.2-1.5v-1.5h-2.9c-1.8,0-2.6,0.6-2.6,1.7c0,0.6,0.2,1,0.6,1.3
			c0.4,0.3,1,0.5,1.8,0.5C28.4,20.1,29.1,20,29.7,19.6z"/>
		<path class="st0" d="M51.1,9.4c1.1,1.1,1.7,2.7,1.7,4.9v8.5h-4.3V15c0-1.2-0.3-2.1-0.8-2.6c-0.5-0.6-1.3-0.9-2.2-0.9
			c-1.1,0-1.9,0.3-2.6,1c-0.6,0.7-1,1.7-1,3v7.3h-4.3V8h4.1v1.7c0.6-0.6,1.3-1.1,2.1-1.4c0.8-0.3,1.8-0.5,2.8-0.5
			C48.5,7.8,50,8.3,51.1,9.4z"/>
		<path class="st0" d="M64.9,22.1c-0.4,0.3-0.9,0.5-1.6,0.7c-0.6,0.2-1.3,0.2-1.9,0.2c-1.8,0-3.1-0.5-4.1-1.4c-1-0.9-1.4-2.2-1.4-4
			v-6.1h-2.3V8.3h2.3V4.7h4.3v3.6h3.7v3.3h-3.7v6c0,0.6,0.2,1.1,0.5,1.4c0.3,0.3,0.8,0.5,1.4,0.5c0.7,0,1.3-0.2,1.7-0.6L64.9,22.1z"
			/>
		<path class="st0" d="M68.3,22c-1.2-0.7-2.2-1.6-2.9-2.7c-0.7-1.2-1-2.5-1-3.9s0.3-2.8,1-3.9c0.7-1.2,1.7-2.1,2.9-2.7
			c1.2-0.7,2.6-1,4.2-1c1.6,0,3,0.3,4.2,1c1.2,0.7,2.2,1.6,2.9,2.7c0.7,1.2,1,2.5,1,3.9s-0.3,2.8-1,3.9c-0.7,1.2-1.7,2.1-2.9,2.7
			c-1.2,0.7-2.6,1-4.2,1C71,23,69.6,22.7,68.3,22z M75.3,18.4c0.7-0.7,1.1-1.7,1.1-3c0-1.2-0.4-2.2-1.1-3c-0.7-0.7-1.6-1.1-2.7-1.1
			c-1.1,0-2,0.4-2.7,1.1c-0.7,0.7-1.1,1.7-1.1,3c0,1.2,0.4,2.2,1.1,3c0.7,0.7,1.6,1.1,2.7,1.1C73.6,19.5,74.5,19.1,75.3,18.4z"/>
	</g>
</g>
<g id="Capa_2">
</g>
</svg>
