<?xml version="1.0" encoding="utf-8"?>
<!-- Generator: Adobe Illustrator 22.0.1, SVG Export Plug-In . SVG Version: 6.00 Build 0)  -->
<svg version="1.1" id="Capa_1" xmlns="http://www.w3.org/2000/svg" xmlns:xlink="http://www.w3.org/1999/xlink" x="0px" y="0px"
	 viewBox="0 0 76.4 82.9" style="enable-background:new 0 0 76.4 82.9;" xml:space="preserve">
<style type="text/css">
	.st0{fill:#76AADB;}
</style>
<path class="st0" d="M75.5,41.6c0,20.5-16.6,37.1-37.1,37.1S1.3,62,1.3,41.6S17.9,4.4,38.4,4.4S75.5,21.1,75.5,41.6z M53.1,26.1
	l-0.2,0l-2.1,0.1l-0.5-2c-0.4-1.5-1.8-2.6-3.5-2.6l-0.1,0c-0.6,0-1.1,0.1-1.6,0.4l-2.3,1.1l-1.2-2.2c-0.6-1.2-1.8-1.9-3.2-1.9
	l-0.1,0l-0.1,0c-1.4,0-2.6,0.7-3.2,1.9l-1.2,2.2l-2.3-1.2c-0.5-0.3-1-0.4-1.6-0.4l-0.1,0c-1.7,0-3.1,1.1-3.5,2.6l-0.5,2l-2.3-0.1
	c-1.9,0-3.6,1.5-3.6,3.3c0,3.7,4.6,3.8,4.6,3.8s2.5,21.7,8.7,28.4c1.6,1.7,3.2,2.5,4.9,2.5c1.7,0,3.3-0.8,4.9-2.5
	c6.2-6.7,8.9-26,8.3-28.7c3.1,0.4,4.3-1.3,4.3-1.3c0.6-0.6,0.9-1.4,0.8-2.2C56.6,27.6,55,26.1,53.1,26.1z M57.6,35.9
	c1.4,4.1,2.9,7.3,4.5,9.3c1.2,1.6,2.2,2.1,2.8,2.1c0.4,0,0.7-0.4,0.9-0.7c0.5-0.9,0.7-2.5,0-3.7C63.4,38.9,59.8,36.6,57.6,35.9z
	 M11,43c-0.7,1.3-0.6,2.8,0,3.7c0.2,0.3,0.5,0.7,0.9,0.7c0.5,0,1.6-0.6,2.8-2.1c1.6-2,3.1-5.2,4.5-9.3C17,36.6,13.3,38.9,11,43z"/>
</svg>
